<svg xmlns="http://www.w3.org/2000/svg" viewBox="0 0 648.46 379.9">
    <defs>
        <style>.cls-1{fill:#f2f2f2;}.cls-2{fill:#34d399;}.cls-3{fill:#059669;}</style>
    </defs>
    <path class="cls-1" d="M284.17,86.52,159.34,131.75v43.57l105.27,38.42,12.71-36.3L210,153.52l74.18-25.44Z"/>
    <path class="cls-1" d="M382.93,15.75,370.14,52.11,438.47,76l-74.13,25.44v41.61L489.12,97.83V54.29Z"/>
    <path class="cls-2" d="M326.62,36.85l-49.3,140.59,43.54,15.42L370.14,52.11Z"/>
    <polygon class="cls-3" points="320.86 192.86 307.99 229.55 264.61 213.74 277.32 177.44 320.86 192.86"/>
    <polygon class="cls-3" points="382.93 15.76 370.14 52.1 326.62 36.85 339.5 0 382.93 15.76"/>
    <path class="cls-2" d="M0,277.06H18.13V377.2H0Z"/>
    <path class="cls-2"
          d="M63.09,303.09a38.31,38.31,0,0,1,19.23,5.12,36.83,36.83,0,0,1,14,13.87,37.28,37.28,0,0,1,5,18.93,38,38,0,0,1-5.08,19.13,36.71,36.71,0,0,1-13.85,13.91,38.23,38.23,0,0,1-19.32,5A36,36,0,0,1,36.63,368a38.29,38.29,0,0,1,1.43-55.08A36.27,36.27,0,0,1,63.09,303.09Zm.3,17.07A18.66,18.66,0,0,0,49.32,326q-5.62,5.86-5.62,15,0,9.42,5.55,15.27a18.58,18.58,0,0,0,14.07,5.84,18.79,18.79,0,0,0,14.17-5.91q5.66-5.91,5.66-15.2T77.59,326A18.8,18.8,0,0,0,63.39,320.16Z"/>
    <path class="cls-2"
          d="M106.53,305h15.54v9.1a19.36,19.36,0,0,1,6.7-8.17,16.2,16.2,0,0,1,9.17-2.79,17,17,0,0,1,7.37,1.86l-5.65,15.61a12.35,12.35,0,0,0-5.24-1.6q-4.18,0-7.07,5.18t-2.89,20.32l.06,3.52V377.2h-18Z"/>
    <path class="cls-2"
          d="M202.16,305h18.13V377.2H202.16v-7.64a35.65,35.65,0,0,1-10.65,7.28,29.85,29.85,0,0,1-11.57,2.22q-14,0-24.21-10.86t-10.22-27q0-16.74,9.89-27.43a31.51,31.51,0,0,1,24-10.69,30.47,30.47,0,0,1,12.2,2.46,33.33,33.33,0,0,1,10.55,7.37ZM183.1,319.83a18.31,18.31,0,0,0-14,5.94q-5.56,5.94-5.56,15.24t5.65,15.41a18.35,18.35,0,0,0,13.94,6,18.68,18.68,0,0,0,14.16-5.94q5.63-5.94,5.62-15.58,0-9.42-5.62-15.27A18.89,18.89,0,0,0,183.1,319.83Z"/>
    <path class="cls-2"
          d="M286.5,277.06h18.13V377.2H286.5v-7.64a35.65,35.65,0,0,1-10.65,7.28,29.82,29.82,0,0,1-11.57,2.22q-14,0-24.21-10.86t-10.22-27q0-16.74,9.89-27.43a31.51,31.51,0,0,1,24-10.69,30.47,30.47,0,0,1,12.2,2.46,33.22,33.22,0,0,1,10.55,7.37Zm-19.06,42.77a18.31,18.31,0,0,0-14,5.94q-5.56,5.94-5.56,15.24t5.65,15.41a18.35,18.35,0,0,0,13.94,6,18.68,18.68,0,0,0,14.16-5.94q5.63-5.94,5.63-15.58,0-9.42-5.63-15.27A18.89,18.89,0,0,0,267.44,319.83Z"/>
    <path class="cls-2"
          d="M351.45,303.09a38.31,38.31,0,0,1,19.23,5.12,36.83,36.83,0,0,1,14,13.87,37.28,37.28,0,0,1,5,18.93,38,38,0,0,1-5.08,19.13,36.71,36.71,0,0,1-13.85,13.91,38.23,38.23,0,0,1-19.32,5A36,36,0,0,1,325,368a38.29,38.29,0,0,1,1.43-55.08A36.27,36.27,0,0,1,351.45,303.09Zm.3,17.07A18.66,18.66,0,0,0,337.68,326q-5.62,5.86-5.62,15,0,9.42,5.55,15.27a18.58,18.58,0,0,0,14.07,5.84,18.79,18.79,0,0,0,14.17-5.91q5.65-5.91,5.66-15.2T366,326A18.78,18.78,0,0,0,351.75,320.16Z"/>
    <path class="cls-1" d="M417.87,364.47V379H403V364.47Z"/>
    <path class="cls-1"
          d="M472.64,309.09a28.25,28.25,0,0,1,10.5,14.49V278.76h12.32V379H483.14V360a28.25,28.25,0,0,1-10.5,14.49q-7.51,5.42-18.34,5.41a33.72,33.72,0,0,1-17.61-4.6,31.93,31.93,0,0,1-12.12-13.2q-4.4-8.6-4.4-20.24a44.38,44.38,0,0,1,4.4-20.32,31.79,31.79,0,0,1,12.12-13.26,33.73,33.73,0,0,1,17.61-4.61Q465.13,303.67,472.64,309.09Zm-33,12.79q-6.83,7.25-6.83,20t6.83,20q6.84,7.25,18.22,7.24a25.34,25.34,0,0,0,13.06-3.38,23.59,23.59,0,0,0,9-9.55,30.26,30.26,0,0,0,3.25-14.28,30.7,30.7,0,0,0-3.25-14.36,23,23,0,0,0-9-9.54,25.7,25.7,0,0,0-13.06-3.32Q446.44,314.64,439.6,321.88Z"/>
    <path class="cls-1"
          d="M574.8,344.43H515.36q.4,12.72,7.25,19.09a23.63,23.63,0,0,0,16.72,6.36q8.92,0,15-4.53a18.8,18.8,0,0,0,7.38-12.12H574.8a31,31,0,0,1-18.14,23.29,40.09,40.09,0,0,1-16.79,3.38,38.29,38.29,0,0,1-19-4.6A32.56,32.56,0,0,1,508,362.1q-4.67-8.6-4.67-20.24A42.25,42.25,0,0,1,508,321.54a32.4,32.4,0,0,1,12.93-13.26,38.3,38.3,0,0,1,19-4.61,37.42,37.42,0,0,1,18.89,4.61,31.58,31.58,0,0,1,12.32,12.32,34.69,34.69,0,0,1,4.26,17.06A36.81,36.81,0,0,1,574.8,344.43Zm-14.62-19.77a19.85,19.85,0,0,0-8.53-8.26,26,26,0,0,0-11.78-2.71,24.37,24.37,0,0,0-17.06,6.3q-6.91,6.3-7.45,18.48h47.53Q563.29,330.2,560.18,324.66Z"/>
    <path class="cls-1" d="M612.17,365.82l23-61.2h13.27L619.35,379H604.73l-29.11-74.34h13.26Z"/>
</svg>
